# xmcd
#
# Track frame offsets: 
#        150
#        12382
#        25570
#        39207
#        54337
#        66872
#        80220
#        94280
#        107557
#        119757
#        132455
#        146560
#        161450
#        175380
#        188465
#        201355
#        213430
#        226790
#        240557
#        253635
#        268337
#        282295
#        294502
#        308702
#        322512
#        335670
#
# Disc length: 4661 seconds
#
# Revision: 4
# Processed by: cddbd v1.5.2PL0 Copyright (c) Steve Scherf et al.
# Submitted via: ExactAudioCopyFreeDBPlugin 1.0
#
DISCID=7712331a
DTITLE=Various Artist - Blowing the Fuse:  26 R&B Classics [Bear Fami
DTITLE=ly]
DYEAR=1945
DGENRE=Rhythm and Blues
TTITLE0=Private Cecil Gant - I Wonder
TTITLE1=Cootie Williams - Somebody's Gotta Go
TTITLE2=Joe Turner - S.K. Blues, Part 1
TTITLE3=Erskine Hawkins - Tippin' In
TTITLE4=Sister Rosette Tharpe - Strange Things Happening Every Day
TTITLE5=Arthur Crudup - Rock Me Mamma
TTITLE6=The Four Clefs - V Day Stomp
TTITLE7=Lucky Millinder - Who Threw the Whiskey in the Well?
TTITLE8=Louis Jordan - Caldonia
TTITLE9=Five Red Caps - Boogie Woogie on a Saturday Nite
TTITLE10=Buddy Johnson - That's the Stuff You Gotta Watch
TTITLE11=Golden Gate Quartet - I Will Be Home Again
TTITLE12=Joe Liggins - The Honeydripper, Part 1
TTITLE13=Count Basie - Jimmy's Blues
TTITLE14=Hadda Brooks - Swingin' the Boogie
TTITLE15=T-Bone Walker - Sail on Boogie
TTITLE16=Big Maceo - Things Have Changed
TTITLE17=Herb Jeffries - Left a Good Deal in Mobile
TTITLE18=Gatemouth Moore - I Ain't Mad at You Pretty Baby
TTITLE19=Ivory Joe Hunter - Blues at Sunrise
TTITLE20=Wynonie Harris - Baby Look at You
TTITLE21=Helen Humes - Be-Baba-Leba
TTITLE22=Johnny Otis - Harlem Nocturne
TTITLE23=Jay McShann - Garfield Avenue Blues
TTITLE24=Julia Lee - If It's Good
TTITLE25=Lionel Hampton - Beulah´s Boogie
EXTD=26 R&B Classics
EXTT0=
EXTT1=
EXTT2=
EXTT3=
EXTT4=
EXTT5=
EXTT6=
EXTT7=
EXTT8=
EXTT9=
EXTT10=
EXTT11=
EXTT12=
EXTT13=
EXTT14=
EXTT15=
EXTT16=
EXTT17=
EXTT18=
EXTT19=
EXTT20=
EXTT21=
EXTT22=
EXTT23=
EXTT24=
EXTT25=
PLAYORDER=
